<svg version="1.1" id="Layer_1" xmlns="http://www.w3.org/2000/svg" xmlns:xlink="http://www.w3.org/1999/xlink" x="0px" y="0px"
	 width="100%" viewBox="0 0 1024 1024" enable-background="new 0 0 1024 1024" xml:space="preserve">
<path fill="#000000" opacity="1.000000" stroke="none" 
	d="
M518.157715,329.455872 
	C557.811157,341.204834 597.038635,352.897369 636.332336,364.362793 
	C640.843079,365.678986 642.370544,367.837708 642.311829,372.446381 
	C642.022888,395.122498 639.723206,417.576721 635.625244,439.864471 
	C635.479492,440.657166 635.473450,441.475586 635.387451,442.449738 
	C637.599487,442.758545 638.238037,439.915955 641.232910,440.682526 
	C635.732483,458.337128 640.624573,476.744354 638.228760,494.910217 
	C629.914368,493.059357 629.634155,492.637604 629.597534,485.503723 
	C629.571472,480.451141 630.205627,475.345062 629.017334,469.680664 
	C623.030273,476.783905 627.624268,485.082489 625.272461,491.788483 
	C623.213135,492.615753 622.479004,490.768585 621.636963,490.795410 
	C613.631165,498.290924 603.613281,502.861664 597.369263,511.733795 
	C596.507690,512.958069 595.350159,513.995789 594.612488,515.282104 
	C586.621521,529.217773 573.831360,537.909180 560.915222,546.567505 
	C547.385193,555.637329 535.107056,566.075928 527.211365,580.728577 
	C523.648987,587.339478 520.815613,594.267883 519.329285,601.676758 
	C518.751465,604.556946 517.443298,606.806641 514.196167,606.813721 
	C510.943909,606.820801 509.158722,605.082275 508.433990,601.764832 
	C503.692322,580.059753 490.517273,564.233093 473.012329,551.501770 
	C466.143829,546.506348 459.277466,541.502808 452.284851,536.684875 
	C446.415558,532.640869 441.849304,527.429138 437.825928,521.651672 
	C430.721130,511.449341 422.823425,502.041626 411.547943,496.164673 
	C408.954010,494.812683 408.283600,492.072723 406.712097,490.194183 
	C405.026764,489.532013 404.698425,492.142395 402.690704,491.158325 
	C400.732452,484.634735 403.875671,476.842133 398.972351,469.703003 
	C397.701965,475.312775 398.412872,480.253235 398.325378,485.126892 
	C398.188232,492.765320 398.214813,492.866058 390.564209,494.729034 
	C388.453308,492.997223 389.005646,490.517303 388.989716,488.285675 
	C388.922974,478.955658 389.004761,469.624695 388.967438,460.294312 
	C388.940979,453.683075 389.508850,446.997406 386.329254,441.013153 
	C388.631470,439.231476 389.780212,441.761719 391.662903,441.285614 
	C392.214966,435.658173 390.267212,430.254944 389.460999,424.759033 
	C386.846558,406.936310 385.663025,389.043396 385.588318,371.040924 
	C385.571930,367.086823 387.137604,365.557098 390.761200,364.547577 
	C429.718994,353.694031 468.360443,341.771362 507.004822,329.862518 
	C510.570099,328.763824 514.092163,327.968445 518.157715,329.455872 
M498.814148,504.484314 
	C498.817780,499.319763 498.854126,494.154968 498.813110,488.990784 
	C498.787811,485.807129 499.060638,482.550201 502.958435,482.145020 
	C507.322357,481.691345 512.297119,480.618805 515.240234,485.281738 
	C519.670410,492.300690 519.511047,492.395233 524.841370,486.315063 
	C524.977722,486.159515 525.446716,486.295502 525.801392,486.295502 
	C527.435608,487.916412 526.959595,490.022278 526.991821,491.955750 
	C527.111084,499.118164 527.268250,506.284485 527.140137,513.444519 
	C527.074280,517.125549 528.669006,518.621094 532.157104,518.612244 
	C536.821594,518.600464 541.486572,518.680054 546.150757,518.643982 
	C553.908142,518.584045 557.761780,514.777344 557.809631,506.953522 
	C557.887024,494.292572 557.754761,481.629639 557.920105,468.970306 
	C557.963867,465.616760 556.848267,463.386047 554.153442,461.424835 
	C542.169250,452.702972 530.219666,443.929138 518.427979,434.950195 
	C514.917725,432.277252 512.150879,432.260590 508.668365,434.912109 
	C496.743805,443.991302 484.721619,452.945923 472.601379,461.761993 
	C469.401031,464.089874 468.267487,466.835693 468.325500,470.666809 
	C468.481873,480.993469 468.372192,491.324158 468.364777,501.653259 
	C468.353729,517.104492 470.036682,518.770569 485.548187,518.652283 
	C498.762787,518.551514 498.762787,518.551575 498.814148,504.484314 
M473.954254,452.433136 
	C484.625793,444.459229 495.268524,436.446320 505.978851,428.524841 
	C513.286560,423.119995 513.329651,423.175964 520.514465,428.416870 
	C522.800903,430.084717 525.093384,431.744659 527.363220,433.434906 
	C540.184265,442.982056 552.983521,452.558594 565.827820,462.074310 
	C568.898010,464.348846 572.062317,464.717865 574.542908,461.249695 
	C577.026672,457.777100 575.646729,455.027679 572.475586,452.782898 
	C568.398376,449.896759 564.476196,446.772217 560.263794,444.102783 
	C557.057983,442.071320 555.751343,439.516205 556.022644,435.795563 
	C556.349182,431.317230 556.414246,426.819397 556.569702,422.329224 
	C556.655518,419.853394 556.321350,417.628357 553.349854,416.930084 
	C549.496460,416.024597 545.564270,416.259064 542.071716,417.733795 
	C539.013489,419.025146 540.840759,422.521240 540.240540,424.978882 
	C540.096069,425.570465 539.759888,426.115234 539.550842,426.592468 
	C537.164673,426.855347 535.991638,425.247589 534.548584,424.223511 
	C529.392639,420.564575 524.285217,416.836884 519.107483,413.209229 
	C515.428955,410.631958 511.670013,410.551453 507.985474,413.259613 
	C489.880127,426.566986 471.755066,439.847748 453.705841,453.230835 
	C450.904510,455.307922 449.475952,458.157776 452.105103,461.392120 
	C454.506561,464.346283 457.409393,464.514893 460.468689,462.286377 
	C464.775787,459.148956 469.083527,456.012451 473.954254,452.433136 
M530.767639,383.590698 
	C531.716736,384.266113 532.641907,384.978699 533.621521,385.606476 
	C534.613647,386.242249 535.673706,386.890259 536.762451,385.780914 
	C537.911865,384.609772 537.719177,383.353729 536.767090,382.204987 
	C536.137024,381.444763 535.395386,380.755127 534.618652,380.141602 
	C522.777466,370.789246 502.701385,370.787598 490.792175,380.221558 
	C489.403564,381.321564 486.794434,382.406647 488.595764,384.897491 
	C490.447327,387.457794 492.029724,385.194366 493.599609,384.179077 
	C505.587128,376.426270 517.768188,375.653381 530.767639,383.590698 
M510.739380,385.154022 
	C505.520966,385.651978 500.476715,386.489288 497.158081,391.239990 
	C499.348877,393.729279 501.061127,392.600708 502.663116,391.901611 
	C510.557037,388.456665 518.134827,388.564087 525.257507,393.826477 
	C526.777466,394.949402 528.130371,395.533844 529.497131,393.695465 
	C531.027283,391.637329 529.281067,390.596405 528.060913,389.652374 
	C523.231506,385.915527 517.637878,384.745819 510.739380,385.154022 
M514.195496,396.312897 
	C511.673798,396.207245 509.173370,396.283356 506.936066,397.648193 
	C505.521942,398.510864 503.759491,399.385803 504.783844,401.475800 
	C505.636688,403.215912 507.244019,402.863464 508.705597,402.235443 
	C511.764832,400.920959 514.701904,400.571899 517.752686,402.472473 
	C520.053223,403.905670 521.454224,402.695526 522.247498,400.064270 
	C520.322327,397.944580 517.923584,396.675446 514.195496,396.312897 
z"/>
<path fill="#000000" opacity="1.000000" stroke="none" 
	d="
M662.604126,523.569458 
	C659.397888,535.357605 656.087891,546.706970 653.274353,558.178101 
	C650.839966,568.103271 643.621948,574.258240 636.700256,580.752014 
	C623.583069,593.058472 609.911682,604.755127 597.076965,617.381714 
	C585.015076,629.247986 578.707825,643.133179 579.179138,660.218811 
	C579.505371,672.046265 579.965454,683.856934 581.139038,695.619995 
	C581.608765,700.328796 580.050171,702.997437 575.737549,704.944946 
	C559.652222,712.208801 543.700562,719.768127 527.671692,727.157776 
	C522.558594,729.514954 521.723450,728.908936 521.721497,723.093323 
	C521.710022,688.933105 521.484924,654.770813 521.791748,620.613342 
	C522.016174,595.625488 532.240845,575.148804 551.813354,559.595337 
	C559.230530,553.701172 567.044250,548.280090 574.893982,542.963501 
	C582.599792,537.744385 588.893738,531.225952 594.358398,523.781006 
	C599.986572,516.113403 605.747742,508.492157 613.641235,502.987213 
	C618.688843,499.466980 624.105896,496.058960 630.735291,497.885071 
	C637.551086,499.762512 639.185669,502.932526 637.561523,509.837830 
	C635.360962,519.193787 629.789001,526.753662 624.176758,534.175720 
	C618.355530,541.874146 612.017639,549.184509 605.831299,556.602539 
	C604.098999,558.679810 602.804565,560.957764 601.955872,563.616028 
	C611.131348,556.132751 619.613281,547.971863 626.621216,538.358887 
	C628.386536,535.937317 629.932007,533.352356 631.745605,530.969727 
	C640.559387,519.390808 643.038208,506.278900 642.169189,491.996460 
	C641.522522,481.369110 642.333862,470.657013 641.800415,460.017517 
	C641.387573,451.784515 644.862915,444.894531 647.894470,437.803558 
	C649.240601,434.654694 651.736328,432.048828 655.659607,432.722839 
	C659.489197,433.380737 660.963501,436.512512 661.635437,439.937958 
	C664.009033,452.037506 665.083008,464.307922 666.264160,476.560760 
	C666.695007,481.030609 666.683411,485.564575 667.413818,489.979919 
	C669.333252,501.583069 666.909424,512.488892 662.604126,523.569458 
z"/>
<path fill="#000000" opacity="1.000000" stroke="none" 
	d="
M436.120575,527.889038 
	C443.768463,538.136230 454.168823,544.585449 464.184021,551.434143 
	C480.295135,562.451355 494.013611,575.420654 500.959503,594.279602 
	C504.217133,603.124451 505.935699,612.266785 505.967468,621.651306 
	C506.081940,655.466248 506.057281,689.281738 506.059631,723.096985 
	C506.060028,728.844299 505.430084,729.193787 500.060272,726.774414 
	C484.126923,719.595581 468.251465,712.283325 452.221497,705.327087 
	C447.867828,703.437744 446.181610,700.913879 446.594269,696.209717 
	C447.597076,684.779053 448.558777,673.358826 448.758911,661.847534 
	C449.067963,644.070923 442.684998,629.508972 430.257355,617.093872 
	C415.518982,602.370422 399.594086,588.950256 384.362671,574.770569 
	C379.182587,569.948242 375.840576,564.468994 374.206940,557.488586 
	C371.517395,545.996521 368.504028,534.544373 364.878082,523.317261 
	C361.069153,511.523315 359.730927,499.602509 360.982941,487.384613 
	C362.661530,471.004486 364.564545,454.646606 366.489929,438.293152 
	C366.840729,435.313477 367.520844,432.189423 371.389282,431.688446 
	C375.266876,431.186340 378.099548,432.777618 380.260162,436.004669 
	C385.043274,443.148407 385.769897,451.276184 385.860596,459.464539 
	C385.954529,467.949402 385.655060,476.442261 385.374695,484.926544 
	C385.134308,492.200378 386.550842,499.353638 385.764923,506.767914 
	C385.123962,512.814880 389.427551,518.313599 392.068695,523.865417 
	C399.155518,538.762329 410.320740,550.348572 422.257355,561.319214 
	C422.679901,561.707581 423.362122,561.813416 425.124969,562.559448 
	C421.436432,555.828674 416.850769,551.314453 412.801147,546.393433 
	C404.650787,536.489319 396.547363,526.506470 391.954315,514.324402 
	C390.218262,509.719940 387.930695,504.597229 392.443848,500.331085 
	C397.007111,496.017578 402.254791,497.470642 407.416138,499.544800 
	C415.472015,502.782196 420.961731,509.065887 426.363403,515.410522 
	C429.706909,519.337646 432.737152,523.531555 436.120575,527.889038 
z"/>
<path fill="#000000" opacity="1.000000" stroke="none" 
	d="
M699.400269,513.645996 
	C706.912598,523.889465 707.432190,525.378906 710.728333,546.441284 
	C717.064331,533.533569 721.760620,521.125916 724.694580,507.936920 
	C723.251221,507.988342 723.520508,510.083954 721.313232,509.597046 
	C719.258972,504.612823 717.039612,499.228210 714.790466,493.771179 
	C724.211914,491.088837 725.137146,491.870789 725.898926,502.109436 
	C726.426453,500.321198 727.125427,498.562866 727.443665,496.738129 
	C728.002625,493.532990 729.999023,492.631653 732.858398,493.082306 
	C736.115845,493.595612 735.473694,496.270233 735.151672,498.217957 
	C733.222717,509.884552 730.590027,521.390198 726.216003,532.419739 
	C722.783264,541.075806 719.236755,549.686768 715.713867,558.384033 
	C717.036621,559.229797 717.528687,557.862610 718.057556,557.336853 
	C728.025024,547.427612 740.252930,545.975586 753.295959,548.070312 
	C757.374817,548.725342 761.326660,550.210876 765.310486,551.403442 
	C767.666260,552.108582 768.665527,553.527344 767.159851,555.888428 
	C759.728333,567.541504 750.900452,577.719604 736.635498,580.691101 
	C728.106262,582.467834 719.511841,581.881531 710.540955,577.039734 
	C716.839050,570.913452 723.794373,567.270935 730.661560,563.109314 
	C726.964661,564.448730 723.313904,565.939575 719.557495,567.083618 
	C716.016235,568.162109 713.562378,572.768494 708.244507,570.707520 
	C700.900452,581.331726 693.007629,592.395935 683.602539,602.549438 
	C685.590332,603.982666 686.899841,602.797363 688.120911,602.360657 
	C703.521790,596.852600 716.463013,602.093994 728.482300,611.469421 
	C730.461243,613.013000 730.740662,614.724121 728.739868,616.443481 
	C716.071289,627.330322 697.085999,636.887146 677.047913,624.180847 
	C675.534973,623.221497 673.731873,622.505859 673.063904,619.933105 
	C679.002258,616.488464 685.458618,614.299622 692.881287,613.353699 
	C686.088806,611.495422 679.782471,615.801270 672.313232,613.738403 
	C668.004700,617.495056 662.732666,622.303589 657.229126,626.830811 
	C651.737976,631.347778 646.014832,635.582886 639.310120,640.781494 
	C656.272156,636.468018 668.170776,642.975037 678.403381,654.271851 
	C681.266296,657.432495 681.367371,659.425354 677.364075,661.449768 
	C664.056519,668.179749 650.569702,671.994812 636.463745,663.908264 
	C632.351501,661.550842 628.330750,658.839478 625.844238,654.089172 
	C631.642578,650.884949 637.567993,650.781860 643.554260,649.973145 
	C639.986450,649.973145 636.167297,650.799866 632.901550,649.806763 
	C625.331970,647.504944 619.539551,651.191406 613.365784,654.179871 
	C606.165222,657.665283 598.804932,660.788086 591.209961,663.330750 
	C588.348145,664.288818 585.317261,664.901062 584.052368,661.306213 
	C582.778076,657.684692 585.538574,656.393860 588.391113,655.316956 
	C593.997253,653.200439 599.418640,650.465515 605.162476,648.874756 
	C612.759460,646.770874 616.189514,641.421204 618.502136,633.995667 
	C615.095825,635.810913 614.108765,639.863831 610.036926,640.956970 
	C606.247742,634.179932 606.375366,626.999207 608.102234,619.887451 
	C611.417603,606.234436 621.243774,598.774536 633.769592,594.184326 
	C637.094666,592.965820 637.855164,595.372986 638.310974,597.786133 
	C640.310974,608.374878 639.887207,618.677063 634.460144,628.340881 
	C633.650696,629.782288 632.882263,631.246704 631.823425,633.201660 
	C634.318481,633.234863 635.857361,631.979431 637.334656,630.942871 
	C646.751343,624.335449 655.872864,617.353638 664.268372,609.455322 
	C666.200378,607.637695 667.181763,605.825684 667.043579,602.948914 
	C666.895020,599.856689 667.764099,596.699097 668.325378,593.594727 
	C668.734253,591.333374 669.129333,589.110657 668.315186,585.388123 
	C666.339111,592.720215 667.510986,599.586182 663.017029,604.709778 
	C654.619873,600.368896 648.982910,585.722473 651.180420,574.810730 
	C653.101440,565.271912 657.394775,556.934998 663.678772,549.571838 
	C667.154785,545.498840 668.451355,545.410583 671.494080,550.023376 
	C681.138245,564.644043 685.760864,579.833557 676.100464,596.764832 
	C677.105042,595.923706 678.137024,595.112793 679.106628,594.232971 
	C680.092712,593.338196 681.098267,592.443970 681.955933,591.431458 
	C688.640137,583.540894 694.962708,575.375671 700.437622,566.586914 
	C701.742310,564.492676 702.693665,562.687561 701.275757,559.766602 
	C700.073914,557.290649 700.921143,553.877625 700.560608,550.915955 
	C700.311523,548.869812 699.549622,546.886108 698.652588,544.946411 
	C697.514282,551.330078 698.909851,557.863037 696.520569,564.681213 
	C687.729919,559.390625 681.787598,552.322693 679.261536,542.792542 
	C675.688354,529.312500 680.127075,517.203796 686.506348,505.559052 
	C687.860291,503.087494 689.566345,503.242737 691.304382,505.010468 
	C693.987854,507.739838 696.564636,510.574036 699.400269,513.645996 
z"/>
<path fill="#000000" opacity="1.000000" stroke="none" 
	d="
M308.345032,513.605713 
	C303.880676,508.699432 303.716980,501.121857 307.646881,496.835022 
	C309.673523,494.624298 311.706635,492.419525 313.727234,490.203308 
	C314.965759,488.844879 316.301239,486.955505 318.218170,488.748871 
	C320.136963,490.543976 318.172363,492.121674 317.084778,493.429718 
	C315.276855,495.604126 313.188873,497.543030 311.319763,499.669769 
	C307.710541,503.776337 308.657532,509.154755 313.861084,510.795563 
	C322.730621,513.592346 327.606720,519.200867 330.413330,528.077087 
	C333.412231,537.561279 337.804962,546.638428 342.037354,555.683594 
	C343.946136,559.762878 344.810028,563.387268 342.533905,567.487671 
	C341.655060,569.070923 341.201965,570.895874 340.601990,572.627014 
	C340.080750,574.130798 340.092072,575.612915 341.272491,576.828369 
	C342.672729,578.270142 344.071808,577.190613 345.404358,576.660583 
	C354.002869,573.240356 353.959503,573.257385 359.555054,580.885132 
	C372.100037,597.986267 387.262329,612.346619 404.884613,624.144104 
	C407.102631,625.629028 408.983002,626.228516 411.770386,625.281921 
	C417.274963,623.412476 421.529327,626.541809 422.354584,632.484985 
	C423.131165,638.077637 424.957642,639.380310 430.626648,638.384705 
	C435.479034,637.532532 439.568329,640.221924 440.274261,644.729614 
	C441.036743,649.598206 438.078644,653.911682 433.407532,654.742737 
	C428.783356,655.565430 424.733276,652.629028 424.041504,647.952271 
	C422.903046,640.255493 421.414948,639.473083 413.121002,642.578735 
	C416.526031,646.824646 417.416992,651.795654 417.320923,656.978210 
	C417.244568,661.096558 420.464417,661.891602 423.184845,663.506409 
	C425.468079,664.861694 430.653900,664.865173 428.897186,668.754883 
	C427.200745,672.510986 423.816101,668.712769 421.205688,668.010071 
	C414.991028,666.337219 412.383728,662.237244 412.645966,655.857178 
	C412.829956,651.380432 410.735596,648.165955 406.792450,645.629028 
	C386.915649,632.840698 369.131592,617.610107 353.947479,599.420288 
	C352.218414,597.348999 350.720154,594.574341 347.198822,595.469971 
	C345.977814,597.193787 347.351959,598.392578 347.894958,599.664734 
	C349.269318,602.884827 349.803955,606.138428 347.930267,609.262695 
	C346.441071,611.745850 346.934509,613.733337 348.942291,615.435974 
	C352.390320,618.359924 354.053436,624.269836 360.399750,622.435059 
	C360.856354,622.303040 361.257660,621.979919 361.766998,621.700439 
	C361.758057,619.127075 359.404327,618.247498 358.176208,616.614990 
	C356.972321,615.014832 355.535034,613.566406 355.521729,611.387634 
	C355.514221,610.162170 355.772644,609.003052 357.110748,608.573181 
	C358.246399,608.208252 359.021606,608.945923 359.634949,609.748901 
	C370.610596,624.117981 384.930176,634.740173 399.431915,645.128296 
	C403.179962,647.813110 403.377319,651.746643 403.145172,655.416382 
	C402.733826,661.918396 405.399628,665.589844 411.408295,667.672302 
	C415.956238,669.248596 420.275635,671.485962 424.692169,673.439392 
	C426.600494,674.283447 428.627777,675.265747 427.368866,677.826782 
	C426.212280,680.179565 424.224670,679.082703 422.600555,678.327271 
	C416.560150,675.518005 410.631897,672.455444 404.518890,669.818604 
	C400.443176,668.060486 398.418335,665.192139 398.698853,660.926392 
	C399.221069,652.984802 396.042877,647.587830 389.158417,643.371155 
	C383.388611,639.837158 378.491608,634.881714 373.187805,630.580688 
	C371.947754,629.575195 371.027893,627.995850 368.882996,628.088135 
	C367.658112,632.252380 368.045776,635.514526 372.144897,638.294250 
	C377.785736,642.119568 382.980591,646.599976 388.399384,650.756836 
	C390.407593,652.297302 391.864471,653.949280 390.532318,656.658020 
	C389.941864,657.858582 389.412445,659.228088 387.845734,659.307556 
	C385.958496,659.403259 385.859283,657.936829 385.779785,656.555115 
	C385.719788,655.512207 385.356445,654.604980 384.536682,653.926880 
	C378.378265,648.832764 371.860931,644.186584 365.584290,639.246887 
	C363.675964,637.745056 359.586945,639.014160 355.818726,639.014160 
	C357.145844,642.188843 359.302032,643.567505 361.140106,645.028503 
	C380.006165,660.024048 400.267761,672.729431 422.487213,682.218811 
	C425.115631,683.341370 427.244385,683.497192 429.979523,682.176147 
	C434.869965,679.814209 439.583496,681.816833 441.590424,686.469788 
	C443.509521,690.919128 441.569977,695.978271 437.260986,697.762695 
	C432.678009,699.660522 427.863831,697.798645 425.927521,692.615540 
	C424.711761,689.361328 422.179626,688.568115 419.655548,687.498962 
	C388.736359,674.402649 361.451172,655.862427 337.696320,632.222961 
	C318.998444,613.615845 304.071655,592.221069 292.588531,568.463440 
	C291.227051,565.646606 289.707703,563.604675 286.454193,562.554871 
	C280.805786,560.732300 278.966003,556.023193 281.707642,550.600647 
	C282.967255,548.109375 283.138245,546.011597 282.174286,543.528870 
	C277.523193,531.550354 274.777832,519.016479 271.551331,506.625183 
	C270.821167,503.820953 269.861633,501.469086 267.133118,499.777527 
	C263.490723,497.519348 262.280548,493.939423 263.764404,489.769409 
	C265.030518,486.211304 267.655853,484.677521 271.440887,484.571991 
	C276.020782,484.444275 278.498077,487.123993 280.254974,490.739716 
	C281.521240,493.345703 280.133636,495.709656 278.613800,497.666656 
	C276.716614,500.109589 276.343750,502.387726 277.019562,505.496979 
	C279.782715,518.210022 283.673096,530.566162 287.930664,542.831116 
	C288.569061,544.670227 289.382111,545.886658 291.345154,546.693420 
	C296.996338,549.015869 298.805359,552.994263 296.646851,558.653931 
	C295.764526,560.967285 296.015686,562.711914 297.057373,564.763611 
	C309.992584,590.239624 326.325439,613.208252 347.144257,632.882141 
	C348.221161,633.899841 349.210327,635.078186 351.519196,635.350464 
	C352.907013,631.701477 354.041412,627.930298 350.844696,624.612366 
	C346.339050,619.936035 343.243958,613.517151 335.886749,612.139771 
	C334.258850,611.834961 332.786499,610.455811 332.385803,608.802124 
	C329.659454,597.550232 320.854980,589.913940 315.431580,580.261719 
	C312.221313,574.548340 309.520447,568.390259 304.480194,563.726379 
	C302.162567,561.581848 302.220337,558.355835 303.410278,555.289490 
	C305.865234,548.963440 302.685638,540.767090 296.515228,538.024109 
	C293.617798,536.736084 292.184723,534.853271 291.499084,531.794617 
	C288.552734,518.650146 285.401520,505.551727 282.350922,492.430481 
	C281.879150,490.401215 281.665070,487.995026 284.150421,487.450684 
	C287.013214,486.823730 286.990753,489.497833 287.366760,491.403656 
	C289.877686,504.129944 292.031067,516.932068 295.740631,529.399231 
	C296.342499,531.422058 296.908630,533.349976 299.103302,533.952332 
	C304.118927,535.329041 306.090454,539.064941 307.193237,543.684875 
	C308.105316,547.505798 309.612518,550.342163 314.144073,551.742310 
	C319.992828,553.549377 320.918793,560.182190 316.316345,565.237122 
	C314.170532,567.593994 314.116760,569.451477 315.655609,571.823853 
	C321.177765,580.337097 326.702026,588.849121 332.326508,597.517212 
	C335.286560,596.410889 336.326660,595.284119 334.195007,592.756165 
	C332.375946,590.598999 330.988007,588.071289 329.120941,585.962952 
	C323.327271,579.420349 321.165009,572.454346 325.853668,564.339417 
	C327.413971,561.638916 325.951172,559.159729 324.801025,556.772400 
	C321.688629,550.312134 318.740112,543.753235 316.737701,536.886230 
	C315.087189,531.226013 311.837921,527.482849 306.289551,525.906006 
	C299.473541,523.968872 296.427917,519.394653 295.557983,512.587219 
	C294.842316,506.986725 293.306396,501.496094 292.372162,495.916901 
	C291.512726,490.784271 295.856323,486.630829 300.764282,487.644775 
	C301.270508,489.206390 300.149658,490.108826 299.344879,491.138855 
	C298.832489,491.794678 298.209351,492.390625 297.822113,493.113220 
	C295.553131,497.347290 300.372162,516.401611 304.364899,519.116516 
	C304.778076,519.397400 305.177002,519.767517 305.638672,519.898865 
	C316.219330,522.909668 320.362915,531.280640 323.336029,540.788391 
	C324.574951,544.750366 325.909027,548.825745 328.049561,552.330627 
	C331.729126,558.355469 331.818787,564.217957 328.750214,570.278870 
	C327.165283,573.409241 327.672424,575.976013 329.997986,578.419617 
	C330.562500,579.012817 331.050934,579.750427 331.353668,580.509644 
	C334.282135,587.854065 340.244202,589.930786 347.418640,589.576416 
	C351.201294,589.389465 353.456329,591.132019 355.750488,593.936584 
	C368.904449,610.017090 384.115570,623.932495 401.001068,636.021912 
	C402.070404,636.787537 403.191772,637.563293 404.996094,637.319519 
	C407.106506,633.046265 405.530212,630.163452 401.649048,627.644714 
	C384.993958,616.835938 370.858704,603.275940 358.606018,587.704407 
	C358.296814,587.311462 357.976349,586.927185 357.675049,586.528381 
	C352.084808,579.129272 352.062592,579.080017 343.824005,582.899841 
	C341.998535,583.746216 340.370239,584.410522 338.947174,582.526978 
	C336.898224,579.814880 332.992737,577.005310 335.254700,573.464355 
	C341.377533,563.879822 336.896545,555.776001 333.001801,547.246460 
	C329.962036,540.589233 327.158417,533.784546 324.854065,526.844727 
	C323.204346,521.876343 320.622742,518.375183 315.589508,516.705750 
	C313.227386,515.922302 310.983521,514.782349 308.345032,513.605713 
M338.252106,600.818420 
	C336.225250,602.306580 335.705200,604.242859 336.800171,606.470886 
	C337.496735,607.888306 338.718292,608.754395 340.408264,608.592468 
	C342.276550,608.413391 343.622589,607.200256 343.978119,605.574463 
	C344.870270,601.494812 342.447418,600.350647 338.252106,600.818420 
M429.114471,645.419250 
	C427.867706,647.675049 428.712952,649.341187 430.828705,650.254089 
	C432.708893,651.065308 433.935547,649.665222 434.928986,648.301025 
	C435.949615,646.899475 435.786987,645.430908 434.545959,644.270325 
	C432.709991,642.553467 430.973175,642.955811 429.114471,645.419250 
M359.226776,627.727478 
	C357.477051,628.958374 356.072235,630.395142 357.381714,632.676941 
	C358.168976,634.048828 359.461884,634.940186 361.148438,634.388855 
	C362.855133,633.830994 364.206879,632.582642 363.997528,630.745544 
	C363.744232,628.522278 362.287781,627.219727 359.226776,627.727478 
M286.213257,553.270264 
	C285.270264,555.575867 286.241943,557.239075 288.265106,558.127258 
	C289.915039,558.851562 291.042999,557.529724 291.953918,556.320740 
	C292.892090,555.075562 292.639404,553.787903 291.689331,552.684998 
	C290.002472,550.726746 288.264099,551.087036 286.213257,553.270264 
M308.156036,557.553528 
	C306.928314,559.609314 307.805969,561.022095 309.668274,561.929504 
	C311.252350,562.701355 312.518860,561.830933 313.560059,560.683838 
	C314.597565,559.540710 314.582886,558.362732 313.525208,557.188354 
	C311.902222,555.386536 310.263794,555.131165 308.156036,557.553528 
M431.390625,688.959167 
	C431.005585,690.973999 431.497650,692.652588 433.635986,693.184631 
	C435.102539,693.549500 436.112030,692.527954 436.617798,691.208435 
	C437.187836,689.721313 437.056122,688.239197 435.715363,687.218384 
	C433.972412,685.891479 432.692993,686.790833 431.390625,688.959167 
M411.927734,635.451477 
	C414.122559,637.019287 416.028473,637.098328 416.771545,634.075806 
	C417.203339,632.319519 416.557068,630.446533 414.484253,630.435547 
	C411.694427,630.420776 410.877014,632.293335 411.927734,635.451477 
z"/>
<path fill="#000000" opacity="1.000000" stroke="none" 
	d="
M768.451294,487.701843 
	C766.094238,489.447815 763.739258,489.354431 761.406860,489.355743 
	C738.779968,489.368530 716.153015,489.414185 693.526245,489.372925 
	C684.499695,489.356476 681.253479,484.276337 685.746765,476.393829 
	C696.950195,456.740021 708.399109,437.222809 720.002502,417.801941 
	C724.345642,410.532684 730.274292,410.516602 734.677551,417.794434 
	C746.473083,437.290466 757.967834,456.968750 769.544128,476.597015 
	C771.745422,480.329315 772.469727,484.071594 768.451294,487.701843 
M725.091187,459.210052 
	C725.785645,460.759521 725.386169,463.473633 727.776672,463.351227 
	C730.412292,463.216278 730.186646,460.399323 730.335083,458.623199 
	C730.817139,452.857666 730.853027,447.056061 731.267639,441.283173 
	C731.470825,438.454224 730.959106,435.962891 727.890564,435.680817 
	C724.256470,435.346680 723.581055,438.451050 723.660767,441.118042 
	C723.833435,446.893311 724.426392,452.656006 725.091187,459.210052 
M725.661011,471.387451 
	C723.842712,472.974487 723.730591,474.725494 725.311951,476.496887 
	C726.277832,477.578827 727.521790,477.838287 728.863281,477.112000 
	C730.562988,476.191742 731.105530,474.689056 730.531250,472.963013 
	C729.849854,470.915161 728.342224,470.224976 725.661011,471.387451 
z"/>
<path fill="#000000" opacity="1.000000" stroke="none" 
	d="
M695.978210,324.957062 
	C699.557800,332.508636 704.966980,338.937256 709.008728,346.208130 
	C717.523499,361.525421 724.248657,377.619110 730.113159,394.187408 
	C729.902649,390.533295 728.995361,386.996857 729.162476,383.302216 
	C729.822571,368.708801 736.993958,358.186340 749.044983,350.595245 
	C752.284180,348.554840 755.588562,346.614410 758.908264,344.706696 
	C761.105408,343.444061 762.697021,343.833069 763.313721,346.570038 
	C766.229309,359.510437 766.986145,372.356598 760.840698,384.646942 
	C756.060913,394.206177 748.268494,400.176453 737.700928,403.250824 
	C736.707458,397.172211 739.416321,392.053467 739.697266,386.441040 
	C734.554932,389.371979 738.071411,397.532288 731.371887,399.103790 
	C731.344238,402.647675 733.906738,405.897614 733.030457,409.639618 
	C724.881531,409.649780 724.400452,409.364380 722.535095,402.102325 
	C709.151245,349.997803 679.648193,309.182953 635.774719,278.529144 
	C628.962769,273.769714 621.633972,269.743195 614.488159,265.471558 
	C611.495300,263.682465 608.462097,262.182983 604.666321,262.444794 
	C601.711975,262.648560 599.693542,260.668518 599.117249,257.685333 
	C598.651855,255.276550 599.687683,253.320465 601.863464,252.326385 
	C604.470886,251.135056 607.354004,251.067627 609.069641,253.649063 
	C610.865234,256.350891 613.420044,257.630768 616.113770,258.943970 
	C645.205444,273.126312 669.687012,293.023499 689.797607,318.354218 
	C691.551636,320.563477 693.562195,322.569153 695.727722,324.829834 
	C696.001892,324.990234 695.978210,324.957062 695.978210,324.957062 
z"/>
<path fill="#000000" opacity="1.000000" stroke="none" 
	d="
M342.014130,291.017700 
	C334.658203,295.708252 330.123047,303.061462 324.829163,309.626770 
	C320.135864,315.447174 316.126709,321.823730 311.893158,328.007935 
	C310.391449,330.201569 308.608429,332.588013 305.935791,330.749695 
	C303.194824,328.864319 305.647156,326.486176 306.793121,324.703613 
	C323.191437,299.196045 343.968292,277.835419 368.005188,259.420197 
	C396.711761,237.427444 429.044037,223.646851 464.099365,215.774872 
	C467.158936,215.087814 469.535980,214.094833 471.257568,211.112991 
	C473.731537,206.828018 478.493286,206.012726 482.489197,208.593460 
	C486.415649,211.129288 487.636353,216.593506 485.147369,220.492096 
	C482.632660,224.430984 476.938873,225.960144 473.380280,222.845200 
	C470.150421,220.018021 467.210297,220.408768 463.741455,221.457733 
	C456.439423,223.665848 448.753815,224.664276 441.913727,228.379333 
	C445.485748,233.256042 450.011017,233.254425 455.093506,231.286591 
	C457.248688,230.452179 459.580719,230.067795 461.841217,229.514938 
	C463.105072,229.205826 464.216888,229.468796 464.707855,230.803436 
	C465.349884,232.548691 464.109009,233.254807 462.804565,233.697479 
	C460.916748,234.338150 458.992950,234.897491 457.051575,235.350632 
	C452.662415,236.375122 448.646790,237.289093 446.677490,242.485062 
	C445.210999,246.354401 440.407715,247.076965 436.326385,244.460800 
	C433.803955,242.843933 431.909943,243.169510 429.439758,244.205246 
	C402.888733,255.337906 379.299408,271.039398 357.904266,290.188507 
	C355.851288,292.025970 355.142670,293.991425 355.254028,296.749908 
	C355.526825,303.509613 352.848297,306.305420 346.151367,306.191040 
	C343.450684,306.144928 341.829529,307.144867 340.313568,309.160950 
	C335.110016,316.080872 329.786469,322.910492 324.541138,329.799255 
	C323.414642,331.278717 322.286041,333.283936 320.207367,332.035492 
	C317.678131,330.516418 319.820251,328.794250 320.773529,327.490356 
	C325.786652,320.633667 330.784637,313.757324 336.070587,307.112762 
	C338.327667,304.275543 340.307861,301.677521 339.685028,297.770233 
	C339.325623,295.515717 340.861877,293.672089 342.247009,291.285828 
	C346.626373,288.997284 351.125397,291.268829 355.099518,287.406494 
	C376.450531,266.655853 401.213959,250.965851 428.808014,239.769699 
	C430.534363,239.069229 432.317383,238.544083 432.682343,236.362823 
	C433.171021,233.442230 435.050385,231.474869 438.067535,229.407364 
	C436.731659,229.655411 436.256927,229.682541 435.824829,229.832504 
	C405.877167,240.225891 379.331421,256.392975 355.583527,277.261963 
	C350.742188,281.516388 345.314484,285.228638 342.014130,291.017700 
M443.506256,239.478439 
	C444.768250,237.288437 444.088654,235.627884 441.955963,234.605560 
	C440.670776,233.989502 439.344696,234.313614 438.353912,235.421066 
	C437.262817,236.640701 436.817017,238.117737 437.824066,239.485550 
	C439.276581,241.458389 441.151672,241.280899 443.506256,239.478439 
M474.933655,215.153870 
	C474.382812,217.317169 475.287933,218.819183 477.305511,219.384949 
	C478.995178,219.858780 480.122070,218.625336 480.915314,217.297668 
	C481.881287,215.680939 481.091217,214.393234 479.805511,213.411285 
	C477.843658,211.912933 476.420624,212.888336 474.933655,215.153870 
M344.991394,296.649658 
	C343.868103,298.611053 344.428925,300.137573 346.314545,301.156372 
	C347.871826,301.997742 349.204071,301.376282 350.158020,300.055481 
	C351.119934,298.723694 351.174469,297.257080 350.015228,296.012085 
	C348.490112,294.374115 346.894318,294.459534 344.991394,296.649658 
z"/>
<path fill="#000000" opacity="1.000000" stroke="none" 
	d="
M350.148193,437.930237 
	C350.754974,437.277618 351.438843,437.296051 351.512512,437.775146 
	C352.501862,444.208710 352.779724,450.733734 351.841339,457.128876 
	C351.286041,460.913483 347.545990,462.352875 344.173309,463.573090 
	C334.041168,467.238770 323.402679,468.246857 312.812714,469.193848 
	C295.004120,470.786346 277.216278,470.317444 259.536285,467.382324 
	C253.421661,466.367249 247.555725,464.538879 241.964264,461.885773 
	C238.745956,460.358734 236.574341,458.031525 236.734497,454.129974 
	C236.888870,450.369843 239.284302,448.672760 242.418411,447.359802 
	C252.234772,443.247559 262.661194,442.040497 273.072510,440.764282 
	C275.396057,440.479492 277.705841,439.194397 279.675171,439.124847 
	C285.222504,438.928955 290.530579,437.234100 295.816040,436.924683 
	C299.324432,436.719299 303.134460,439.326599 307.072693,437.052338 
	C307.984650,436.525726 309.037750,437.088257 309.616150,438.053101 
	C310.253510,439.116150 309.732422,440.009735 308.964935,440.698456 
	C305.792786,443.544891 302.161346,444.106812 298.292206,442.441650 
	C295.836456,441.384766 293.625336,441.053131 291.239594,442.698303 
	C290.197418,443.416901 288.408844,444.221527 287.516998,443.801849 
	C281.300201,440.876465 276.506592,446.200378 270.791351,446.462585 
	C265.035553,446.726654 259.337524,448.418762 253.636826,449.595032 
	C252.186020,449.894348 250.800873,450.562347 249.421310,451.145538 
	C246.897812,452.212372 247.062149,454.630005 246.963486,456.708588 
	C246.856079,458.971252 249.022552,459.069275 250.516068,459.510040 
	C252.781494,460.178650 255.182556,460.240753 257.441681,459.574432 
	C264.751282,457.418549 271.672119,458.770203 278.269531,461.985321 
	C281.693420,463.653900 284.635010,463.107300 288.240997,462.412109 
	C293.889954,461.323029 299.676453,458.649750 305.674286,461.291473 
	C308.055878,462.340515 310.545288,462.015503 313.041656,461.489746 
	C319.062836,460.221710 324.993042,458.554077 331.135559,457.807831 
	C335.465210,457.281830 335.584381,455.731689 333.609528,451.957947 
	C330.193512,445.430481 323.759338,448.052460 318.782074,446.382782 
	C316.938446,445.764282 314.799347,446.089142 312.848358,445.709564 
	C311.098175,445.368988 310.524872,443.935120 310.709351,442.268158 
	C310.916229,440.398682 312.308868,440.511414 313.707062,440.536041 
	C322.104004,440.683960 330.306458,442.277039 338.273041,444.664520 
	C348.241608,447.652008 346.985657,447.565857 350.148193,437.930237 
z"/>
<path fill="#000000" opacity="1.000000" stroke="none" 
	d="
M417.044312,330.125977 
	C419.000824,326.446716 422.817383,323.679871 420.905701,319.205292 
	C419.454742,318.785095 418.893341,319.312073 418.422241,320.082092 
	C415.147308,325.435211 412.679291,326.217438 405.620331,324.157928 
	C400.439392,322.646362 397.315094,318.006348 397.647156,312.316681 
	C397.973877,306.718414 401.239258,302.522095 406.540070,301.844147 
	C409.267273,301.495392 410.531921,300.284424 411.769684,298.059814 
	C418.464478,286.027069 433.107117,285.429474 440.514984,296.893280 
	C441.751251,298.806335 443.111664,299.476013 445.283051,299.786255 
	C451.746490,300.709869 456.242615,306.496002 455.777893,312.857025 
	C455.263031,319.904541 450.894531,324.124420 443.835815,324.346619 
	C441.671661,324.414734 439.492676,324.248596 437.341400,324.433319 
	C433.544464,324.759399 430.348450,324.333862 430.118256,319.113159 
	C426.412842,321.011444 425.415375,324.250427 423.884705,327.006195 
	C422.838440,328.889832 422.143524,330.965179 421.206818,332.914124 
	C420.302368,334.796051 418.649078,335.922363 416.742859,334.980011 
	C414.064362,333.655853 416.196381,331.950806 417.044312,330.125977 
z"/>
<path fill="#000000" opacity="1.000000" stroke="none" 
	d="
M309.702667,415.388916 
	C306.998016,421.443878 302.225098,422.766296 295.926788,422.454468 
	C286.317902,421.978790 276.664185,422.490906 267.032166,422.369263 
	C261.399994,422.298157 257.304169,418.089752 257.042419,412.609680 
	C256.776306,407.038330 260.319366,402.773468 266.186005,402.257721 
	C268.232788,402.077789 269.077362,401.408142 269.781006,399.664398 
	C272.361725,393.269562 277.027924,389.209229 284.002930,388.857513 
	C290.926392,388.508453 296.139038,391.759125 299.229614,398.063721 
	C299.955139,399.543854 300.903564,400.392151 302.562500,400.655609 
	C308.537750,401.604553 311.441467,405.357239 311.727295,411.805847 
	C310.903015,413.400177 310.302826,414.394531 309.702667,415.388916 
z"/>
<path fill="#000000" opacity="1.000000" stroke="none" 
	d="
M780.036560,497.988586 
	C777.451538,510.386536 771.370300,520.302002 761.645386,527.762512 
	C752.938354,534.442139 742.961670,534.317139 731.538513,532.598572 
	C735.078064,526.496704 739.796387,522.621460 744.773865,517.292114 
	C738.593689,519.286072 735.625061,523.552246 731.957947,526.608215 
	C729.981018,525.789917 730.389893,524.315613 730.707581,523.122070 
	C733.530579,512.516968 738.749329,503.872620 749.579712,499.591278 
	C758.131531,496.210693 766.953247,495.267578 776.025940,495.883270 
	C777.521423,495.984772 779.049927,496.085938 780.036560,497.988586 
z"/>
<path fill="#000000" opacity="1.000000" stroke="none" 
	d="
M676.129883,381.933350 
	C688.049194,381.156738 699.502014,380.904388 709.554382,388.193573 
	C714.991821,392.136383 718.754578,397.311920 721.212524,403.451599 
	C721.972900,405.350922 723.362793,407.815216 721.131470,409.408783 
	C719.089050,410.867371 717.538513,408.634277 715.957092,407.571655 
	C715.140564,407.023041 714.415710,406.338104 713.151733,406.101166 
	C713.916687,407.001892 714.726379,407.868866 715.437012,408.810547 
	C716.800537,410.617126 718.893616,412.229004 717.480774,414.941406 
	C716.085144,417.620697 713.791443,418.458252 710.844910,418.386658 
	C700.633179,418.138550 692.109863,414.314117 685.324097,406.673859 
	C680.242798,400.952759 677.377136,394.034149 674.842773,386.960114 
	C674.225159,385.236115 673.702209,383.360748 676.129883,381.933350 
z"/>
<path fill="#000000" opacity="1.000000" stroke="none" 
	d="
M468.417542,284.317474 
	C458.820190,255.506638 473.669159,226.723831 502.188995,220.569412 
	C535.784424,213.319672 559.046143,238.367523 560.459717,265.149872 
	C561.621216,287.155945 545.406677,309.107727 523.754639,313.508057 
	C498.746185,318.590454 475.903412,305.334381 468.417542,284.317474 
M555.053406,257.489838 
	C548.770081,233.454376 526.361084,219.104553 503.581116,224.528961 
	C480.388489,230.051651 465.326477,253.300003 470.467407,276.082855 
	C475.363770,297.781860 493.918640,311.286743 513.683228,310.429626 
	C545.214905,309.062195 560.437622,279.563812 555.053406,257.489838 
z"/>
<path fill="#000000" opacity="1.000000" stroke="none" 
	d="
M685.808472,337.887054 
	C692.428467,341.470154 697.293152,346.146118 700.145691,353.000183 
	C696.603882,354.460236 694.457458,351.497864 690.980530,351.449432 
	C694.132629,354.377777 698.068237,355.465118 700.745483,359.030426 
	C691.595947,364.504364 682.284424,365.916656 672.444519,362.731506 
	C663.373535,359.795227 656.664856,353.735870 651.345093,345.949219 
	C649.444946,343.167938 650.005127,341.249023 652.953674,340.075745 
	C663.526489,335.868591 674.257751,333.432800 685.808472,337.887054 
z"/>
<path fill="#000000" opacity="1.000000" stroke="none" 
	d="
M249.453552,475.836456 
	C243.527985,474.431854 238.049606,472.965271 233.350479,469.619690 
	C228.781448,466.366730 228.178635,462.590424 231.470078,458.148682 
	C242.868484,469.856323 257.980286,470.135376 272.765564,471.714111 
	C288.394318,473.382996 303.992188,472.810455 319.580963,471.615417 
	C329.203674,470.877747 338.638763,468.948395 347.732269,465.545959 
	C351.936615,463.972870 355.168213,461.358154 357.051666,457.157623 
	C361.625214,461.583130 361.144989,466.298798 355.698975,469.954590 
	C349.046844,474.420013 341.287811,475.917847 333.586426,477.220764 
	C305.611816,481.953461 277.684296,481.637878 249.453552,475.836456 
z"/>
<path fill="#000000" opacity="1.000000" stroke="none" 
	d="
M696.016602,325.004211 
	C685.252747,304.503754 693.957581,290.361420 703.872864,280.694641 
	C708.624634,276.061981 709.908508,276.435547 712.573669,282.554779 
	C718.064758,295.162262 720.249329,307.777222 712.342529,320.259491 
	C710.235107,323.586365 707.873657,326.827911 703.358704,328.427643 
	C700.220276,322.237457 700.835571,316.000366 701.173157,309.746552 
	C699.293396,313.980286 699.249084,318.445068 699.341797,322.958649 
	C699.376709,324.660889 699.764526,327.300201 696.256592,325.118011 
	C695.978210,324.957062 696.001892,324.990234 696.016602,325.004211 
z"/>
<path fill="#000000" opacity="1.000000" stroke="none" 
	d="
M782.272644,420.666321 
	C782.148865,434.096344 780.185913,446.531921 771.301819,456.880463 
	C766.596741,462.361145 765.442810,462.378906 761.765503,456.351898 
	C757.883667,449.989746 754.122375,443.554016 750.229858,437.198517 
	C748.991882,435.177094 748.260620,433.404938 750.436462,431.508636 
	C758.690369,424.314819 768.375183,420.331207 779.084473,418.643494 
	C780.401550,418.435944 781.815002,418.468872 782.272644,420.666321 
z"/>
<path fill="#000000" opacity="1.000000" stroke="none" 
	d="
M605.446960,306.546570 
	C604.813721,307.881927 604.380676,309.653717 603.685730,309.763275 
	C598.098328,310.644012 598.751587,314.330688 600.295410,318.275146 
	C590.036255,317.113281 584.579956,303.626373 589.838257,294.172913 
	C591.323120,291.503479 592.893311,289.605743 595.562988,293.119263 
	C600.464844,288.302826 600.233337,282.515350 599.324280,275.703766 
	C606.264771,277.624298 610.368774,281.520660 613.328308,286.860443 
	C614.731567,289.392151 615.979797,291.591492 618.619324,293.554138 
	C622.639526,296.543396 621.829224,301.984619 621.222717,306.603058 
	C620.440186,312.561615 616.090332,316.755005 609.522827,318.191101 
	C608.973206,315.399811 611.394470,312.950897 610.365601,310.114227 
	C609.494995,307.714142 609.863708,304.780548 607.144653,303.291016 
	C605.579773,303.798492 606.002197,305.244049 605.446960,306.546570 
z"/>
<path fill="#000000" opacity="1.000000" stroke="none" 
	d="
M329.778137,335.979797 
	C326.675873,334.728821 328.026276,332.959015 329.010101,331.509186 
	C332.185944,326.828888 335.527802,322.261566 338.741150,317.606171 
	C339.830902,316.027435 341.325439,315.671753 343.067474,315.682892 
	C346.063080,315.702026 349.059082,315.710541 352.054626,315.687164 
	C359.231201,315.631195 363.965881,310.728363 363.956055,303.491425 
	C363.933044,286.505280 361.120972,291.199097 375.284271,280.167267 
	C387.482635,270.665955 400.233826,261.887421 414.186920,254.981293 
	C417.779327,253.203247 420.778656,253.008011 423.812500,255.500870 
	C428.471710,259.329254 433.255554,259.837036 438.401947,256.498871 
	C439.353516,255.881653 440.550293,255.613892 441.662537,255.280441 
	C442.907715,254.907135 444.007690,255.161179 444.573090,256.461517 
	C445.160095,257.811493 444.314423,258.613464 443.364227,259.391541 
	C437.547729,264.154480 430.517365,264.964569 423.902649,260.925690 
	C419.998383,258.541809 417.035553,258.895538 413.032959,260.999420 
	C398.814362,268.473145 385.855835,277.698486 373.303497,287.624664 
	C369.702179,290.472534 368.239471,293.555847 368.190979,298.202240 
	C368.138702,303.208008 370.186066,308.264893 365.944489,313.346527 
	C361.223785,319.002197 356.122223,321.289490 349.189880,320.214142 
	C344.272339,319.451355 341.164795,321.461945 338.529999,325.606720 
	C336.167450,329.323242 334.177094,333.521973 329.778137,335.979797 
z"/>
<path fill="#000000" opacity="1.000000" stroke="none" 
	d="
M727.843384,316.253723 
	C727.523376,312.658783 728.925537,311.974762 731.699768,313.157074 
	C737.886414,315.793518 747.864197,331.856628 747.385803,338.459534 
	C746.908752,345.042419 742.519836,349.669342 736.373047,349.704834 
	C736.963501,345.329346 739.201416,340.567505 734.047607,336.856506 
	C732.343933,339.323395 731.996399,342.577423 727.965698,343.282043 
	C725.762207,343.667236 727.852722,347.413055 727.667297,349.676544 
	C725.256470,351.259399 723.570190,349.803375 721.959656,348.352844 
	C716.628540,343.551300 715.554932,333.797638 719.085693,327.580933 
	C720.841675,324.489136 722.591675,326.686310 724.343262,326.965027 
	C726.850464,323.826660 728.101013,320.499329 727.843384,316.253723 
z"/>
<path fill="#000000" opacity="1.000000" stroke="none" 
	d="
M405.648376,269.823975 
	C408.519531,264.683838 412.248474,263.432922 416.908051,265.695465 
	C420.994965,267.679932 422.590393,272.270844 420.760223,276.779907 
	C419.227509,280.556152 414.596588,282.830811 410.279297,280.796570 
	C406.356171,278.948059 403.723663,280.160919 400.750244,282.239258 
	C396.253204,285.382538 391.825623,288.670105 387.089386,291.414673 
	C381.194672,294.830566 378.803680,299.772034 379.425201,306.325806 
	C379.834259,310.639679 378.543457,314.074463 375.100708,316.796539 
	C373.547760,318.024414 372.032806,319.449677 370.934662,321.078064 
	C365.705170,328.833038 359.041748,333.262390 349.235809,331.295929 
	C346.551819,330.757690 344.947205,332.622772 343.528320,334.562927 
	C342.154968,336.440765 340.825409,338.352661 339.395447,340.186279 
	C338.564514,341.251740 337.440399,341.474091 336.351166,340.554901 
	C335.483002,339.822144 335.548126,338.881866 335.908691,337.836426 
	C337.936279,331.957184 344.571289,326.855194 351.016754,326.657196 
	C356.555603,326.487091 361.483734,325.412079 364.848724,320.434906 
	C365.857269,318.943146 367.225037,317.603943 368.668732,316.513184 
	C373.622803,312.770294 375.724854,308.011230 374.693115,301.799683 
	C373.901642,297.034454 375.838715,293.692017 379.973083,290.975616 
	C387.193024,286.231934 393.864655,280.636353 401.563599,276.635468 
	C404.356323,275.184204 405.058868,272.860046 405.648376,269.823975 
M413.490051,269.468506 
	C410.755493,269.816864 409.180634,271.227478 409.806030,274.098541 
	C410.136780,275.616882 411.300323,276.666840 413.023651,276.689423 
	C414.693695,276.711304 415.902802,275.859039 416.446259,274.337280 
	C417.252350,272.080139 416.320618,270.514496 413.490051,269.468506 
z"/>
<path fill="#000000" opacity="1.000000" stroke="none" 
	d="
M309.643799,415.711487 
	C310.302826,414.394531 310.903015,413.400177 311.773438,412.183777 
	C316.113556,408.637787 320.417053,406.402863 325.736298,409.105438 
	C327.245117,409.871979 328.791931,410.743317 328.690338,412.727356 
	C328.597046,414.549377 327.184692,415.011414 325.613739,415.418335 
	C322.419342,416.245850 320.434998,418.309967 321.859375,421.639008 
	C323.334595,425.086761 326.244293,426.474487 330.075226,425.285797 
	C331.893707,424.721558 333.178131,422.636780 335.710510,423.408966 
	C336.635803,426.312653 335.076782,428.081696 332.796600,429.394287 
	C328.849060,431.666626 324.866516,431.580658 320.979248,429.188049 
	C316.189545,426.239990 315.384216,421.728363 316.423218,415.459503 
	C313.060883,420.273468 312.931915,424.143890 315.282166,428.170898 
	C317.776215,432.444214 322.949432,435.012817 327.511902,434.191589 
	C328.811340,433.957703 330.056946,433.433929 331.335175,433.070953 
	C333.071106,432.578003 335.106903,430.565826 336.256378,433.722504 
	C337.332367,436.677399 335.477142,438.065002 333.022003,438.844147 
	C325.533325,441.220612 318.905487,439.749420 313.275879,434.202698 
	C312.217072,433.159454 311.301788,431.970520 309.849915,430.311218 
	C305.636749,435.251190 300.663818,435.520050 295.198761,432.585846 
	C293.778595,431.823395 292.403870,433.277771 291.011261,433.742554 
	C287.299469,434.981415 283.782379,434.761139 280.751678,432.005646 
	C279.716431,431.064331 278.963043,429.783752 279.798126,428.458893 
	C280.753021,426.943848 282.170624,427.568909 283.277649,428.361816 
	C286.100281,430.383636 288.886658,430.035461 291.700714,428.440674 
	C293.727081,427.292358 295.593628,427.255310 297.818115,428.307129 
	C304.250122,431.348267 308.435669,428.535217 308.645660,421.396820 
	C308.698425,419.601532 309.258148,417.821228 309.643799,415.711487 
z"/>
<path fill="#000000" opacity="1.000000" stroke="none" 
	d="
M377.494751,688.963379 
	C369.311646,690.830078 362.940704,688.043579 357.055634,683.217590 
	C354.850800,681.409546 354.105774,679.798462 356.046234,677.395508 
	C358.340424,674.554565 360.822693,671.800110 362.669922,668.680420 
	C364.875305,664.955750 367.058899,665.416443 369.769165,667.817383 
	C370.387146,668.364807 371.109192,668.811707 371.829803,669.223450 
	C375.522614,671.333557 377.402130,673.538635 370.497192,676.568665 
	C374.898773,676.877136 375.309906,673.261597 378.564575,673.738953 
	C380.783051,677.290588 381.530945,682.041199 382.149414,686.644714 
	C382.474670,689.065735 379.612457,688.614563 377.494751,688.963379 
z"/>
<path fill="#000000" opacity="1.000000" stroke="none" 
	d="
M590.415527,251.161438 
	C589.302307,252.460556 589.128357,254.368195 586.802551,254.127045 
	C586.485352,251.004547 588.030396,248.336929 588.962585,245.597931 
	C591.686340,237.595123 591.757751,237.619415 583.618896,235.372955 
	C584.597839,227.880096 586.718567,220.599655 589.110779,213.411942 
	C589.676941,211.710678 597.692200,211.020203 599.432251,212.405884 
	C602.002075,214.452255 599.293030,216.256836 598.947937,218.168839 
	C598.861633,218.646957 598.555603,219.083649 598.362915,219.544540 
	C595.072998,227.414001 595.082031,227.419846 603.198975,228.891113 
	C603.627319,228.968750 603.996521,229.372574 604.979553,229.996887 
	C600.265259,237.106857 594.604919,243.451996 590.415527,251.161438 
z"/>
<path fill="#000000" opacity="1.000000" stroke="none" 
	d="
M247.320251,527.501892 
	C247.026031,526.116272 246.847122,525.136536 246.665375,524.157410 
	C244.964981,514.997742 245.227509,514.566589 254.378403,511.861389 
	C256.129456,511.343750 257.903870,510.902863 259.674316,510.453461 
	C263.176666,509.564423 265.536316,510.703552 266.420776,514.344543 
	C267.438354,518.533264 268.291748,522.767883 269.477814,526.907654 
	C270.348999,529.948303 269.019714,531.280090 266.358734,531.909241 
	C263.455688,532.595703 260.498016,533.082214 257.636078,533.905823 
	C249.383789,536.280579 249.265625,536.252502 247.320251,527.501892 
M256.295593,526.497253 
	C254.740845,526.364746 253.186096,526.232178 251.321503,526.073242 
	C251.581436,528.068665 251.502426,529.850647 253.281113,531.322021 
	C255.242371,530.383118 258.686676,530.881104 256.295593,526.497253 
M263.166626,523.934692 
	C262.417114,525.002502 259.962036,524.486389 260.520020,526.756775 
	C260.826965,528.005920 261.600220,528.723877 262.955963,528.641968 
	C264.171753,528.568604 265.348022,528.183655 265.502045,526.858398 
	C265.672668,525.389587 265.968994,523.573608 263.166626,523.934692 
z"/>
<path fill="#000000" opacity="1.000000" stroke="none" 
	d="
M696.488525,492.779297 
	C700.430115,492.726715 703.946777,492.922607 707.417725,492.610077 
	C711.497803,492.242676 713.425415,494.053467 714.614258,497.790100 
	C716.667847,504.244904 718.039124,510.661621 717.674072,514.939514 
	C717.112183,515.046997 716.389221,515.434570 715.879456,515.245911 
	C706.342163,511.716339 698.723938,505.850342 693.788391,496.801331 
	C692.432861,494.316101 693.360535,493.046844 696.488525,492.779297 
z"/>
<path fill="#000000" opacity="1.000000" stroke="none" 
	d="
M318.729645,616.391052 
	C320.405426,624.641541 318.711121,629.485352 313.305695,632.742249 
	C307.342957,636.334900 300.276459,635.091797 296.441101,629.775452 
	C292.646729,624.515930 293.544708,616.402832 298.390564,612.162476 
	C303.730408,607.489868 310.922668,607.582886 315.907135,612.491089 
	C316.949554,613.517578 317.676453,614.864380 318.729645,616.391052 
M302.371643,616.457642 
	C301.639221,617.127075 300.778748,617.701172 300.196655,618.482605 
	C297.757599,621.756714 298.361328,625.215942 301.770966,628.038208 
	C305.418304,631.057312 309.473480,630.671570 312.721558,626.996643 
	C315.728668,623.594299 315.725769,618.841248 312.411743,615.810547 
	C309.388702,613.045959 306.114105,611.924561 302.982758,616.016785 
	C302.982758,616.016785 302.903412,616.080627 302.371643,616.457642 
z"/>
<path fill="#000000" opacity="1.000000" stroke="none" 
	d="
M271.693085,570.198486 
	C268.061066,562.685242 264.504059,555.542297 262.233521,547.862915 
	C261.695557,546.043396 260.426178,543.716125 263.299988,542.867981 
	C265.899902,542.100586 266.031891,544.605225 266.627380,546.235840 
	C273.154388,564.108643 281.800049,580.908752 292.201355,596.822144 
	C292.746765,597.656677 293.354675,598.459412 293.813049,599.339600 
	C294.620819,600.890686 296.287872,602.664429 294.171875,604.154663 
	C291.840637,605.796448 291.079315,603.288696 290.066071,601.960999 
	C282.663116,592.261169 277.337250,581.351746 271.693085,570.198486 
z"/>
<path fill="#000000" opacity="1.000000" stroke="none" 
	d="
M403.045105,209.515289 
	C410.216553,213.249268 412.531952,217.538498 411.432434,224.484131 
	C410.631500,229.543808 406.443909,233.525711 400.866058,234.198685 
	C395.858368,234.802872 391.657867,233.187042 388.868561,228.799225 
	C385.649750,223.735779 386.014130,218.623154 389.430939,213.882660 
	C392.688812,209.362671 397.313538,208.118027 403.045105,209.515289 
M395.957306,214.573990 
	C390.670197,219.428772 389.802887,224.284271 393.791077,227.639374 
	C396.936279,230.285324 400.472900,230.573364 403.862244,228.136475 
	C407.141418,225.778793 407.810638,222.362671 406.236237,218.841934 
	C404.409424,214.756882 401.190582,212.832001 395.957306,214.573990 
z"/>
<path fill="#000000" opacity="1.000000" stroke="none" 
	d="
M367.169189,237.127533 
	C370.127441,235.221054 372.751099,233.455292 375.465698,231.842560 
	C377.071991,230.888275 378.948547,228.990799 380.531891,231.682755 
	C381.898895,234.006958 379.724213,234.930878 378.232758,235.844818 
	C365.152191,243.860611 352.958618,253.054718 341.514282,263.260559 
	C340.322723,264.323212 338.999603,265.974792 337.312653,264.156342 
	C335.705200,262.423584 337.203705,261.111938 338.377136,259.940796 
	C344.161438,254.167709 350.625671,249.200623 357.132416,244.294479 
	C360.317932,241.892578 363.622253,239.648254 367.169189,237.127533 
z"/>
<path fill="#000000" opacity="1.000000" stroke="none" 
	d="
M298.133636,312.879974 
	C296.561554,314.832031 297.188538,316.506989 297.678375,318.338867 
	C298.900024,322.907745 296.107117,327.411957 291.774048,328.207550 
	C287.475403,328.996826 283.384338,326.448151 282.610443,322.498810 
	C281.591400,317.298584 284.160614,313.138031 289.192963,312.797180 
	C292.139435,312.597565 293.681671,311.243591 295.107300,309.027618 
	C297.540375,305.245697 300.107422,301.549469 302.644073,297.834900 
	C303.661896,296.344421 304.892181,295.140503 306.714081,296.669037 
	C308.314240,298.011475 307.308533,299.306915 306.432098,300.589172 
	C303.707275,304.575745 301.018341,308.586853 298.133636,312.879974 
M291.793518,317.509064 
	C289.749634,316.813049 288.140533,317.287109 287.381500,319.408112 
	C286.829681,320.950043 287.128784,322.424500 288.658691,323.299316 
	C289.965424,324.046478 291.266815,323.724518 292.306458,322.707886 
	C293.879211,321.169922 293.919434,319.533203 291.793518,317.509064 
z"/>
<path fill="#000000" opacity="1.000000" stroke="none" 
	d="
M324.002441,283.003662 
	C324.070160,281.026337 323.649384,279.940521 321.368256,278.929321 
	C318.673523,277.734741 316.667694,274.986176 314.221588,272.783783 
	C315.362885,269.186127 318.382294,267.273407 320.780457,264.893463 
	C321.914551,263.767975 323.293060,264.096954 324.383148,265.052643 
	C328.343018,268.524292 332.162048,272.200348 334.582733,276.921082 
	C336.125854,279.930359 332.749756,281.064819 331.463226,282.977020 
	C329.285583,286.213745 326.982544,284.376465 324.348816,283.065063 
	C324.000000,283.000000 324.002441,283.003662 324.002441,283.003662 
z"/>
<path fill="#000000" opacity="1.000000" stroke="none" 
	d="
M607.447571,332.507019 
	C604.318054,331.940094 601.819336,332.619934 599.239014,333.485260 
	C592.055969,335.894287 585.821655,333.932983 580.464111,328.804474 
	C579.518677,327.899414 578.262512,326.780151 579.307190,325.399811 
	C580.452515,323.886505 582.169556,324.339844 583.236084,325.497742 
	C588.532532,331.247986 594.591797,331.683167 601.358826,328.522430 
	C603.967773,327.303864 606.592224,328.095306 609.134827,328.971985 
	C615.090271,331.025330 620.583679,330.723114 625.297791,325.997589 
	C626.499390,324.793152 628.019470,323.446777 629.587158,325.024200 
	C631.542969,326.992218 629.490723,328.326538 628.221436,329.498688 
	C622.155762,335.100281 615.287659,335.752899 607.447571,332.507019 
z"/>
<path fill="#000000" opacity="1.000000" stroke="none" 
	d="
M448.724426,207.676361 
	C447.317719,209.311874 446.134827,210.659775 444.473053,212.553329 
	C442.264252,206.235580 438.334290,208.513214 434.643768,209.751709 
	C430.708405,211.072327 426.798676,212.469147 422.866547,213.799637 
	C421.432251,214.284958 419.781860,214.840134 418.916534,213.074615 
	C417.907471,211.015839 419.443115,209.906616 421.059967,209.322006 
	C425.585419,207.685699 430.109985,205.983307 434.754059,204.759048 
	C438.413361,203.794403 441.457123,202.697403 440.984894,198.153152 
	C445.373474,198.403870 448.642212,199.709671 451.965149,202.438309 
	C451.931274,204.660553 449.868195,205.684158 448.724426,207.676361 
z"/>
<path fill="#000000" opacity="1.000000" stroke="none" 
	d="
M507.029236,215.946320 
	C504.997925,213.704910 503.905823,201.183914 505.304779,199.269608 
	C506.928741,197.047409 508.791595,197.681519 510.301575,199.410110 
	C512.460144,201.881149 514.446655,204.502457 516.663086,207.253769 
	C517.972290,204.894470 517.515808,202.701141 517.716064,200.611359 
	C517.855530,199.155380 518.225769,197.935944 520.019775,198.033447 
	C521.466675,198.112076 522.056335,199.153427 522.075623,200.397034 
	C522.142883,204.719055 522.133606,209.042908 522.093689,213.365524 
	C522.082458,214.583740 521.674133,215.695786 520.283020,216.000229 
	C518.812134,216.322159 517.641541,215.616562 516.754089,214.588028 
	C514.602844,212.094925 512.547668,209.519012 510.373077,206.878540 
	C507.840881,209.662094 511.296417,213.953949 507.029236,215.946320 
z"/>
<path fill="#000000" opacity="1.000000" stroke="none" 
	d="
M324.189026,645.789185 
	C323.007233,644.591614 321.995026,643.713013 321.161957,642.688782 
	C319.977692,641.232727 317.744171,639.709106 319.986572,637.703186 
	C322.178772,635.742188 323.605469,638.077515 324.924530,639.349854 
	C328.382446,642.685364 331.651733,646.215637 335.084167,649.578369 
	C339.824768,654.222839 344.871216,658.515259 350.202759,662.478516 
	C351.639679,663.546692 353.451813,664.874207 351.925629,666.951416 
	C350.134369,669.389404 348.475952,667.618164 346.934845,666.363892 
	C339.087250,659.976807 331.360352,653.455505 324.189026,645.789185 
z"/>
<path fill="#000000" opacity="1.000000" stroke="none" 
	d="
M400.232147,694.599976 
	C403.571167,696.815735 406.125183,696.597229 407.717407,692.446228 
	C411.830109,695.906433 413.209534,700.057068 415.210693,704.305786 
	C410.635834,706.435608 406.130554,706.672974 401.995789,707.186340 
	C399.928955,704.983643 402.501282,703.412048 401.758911,701.281860 
	C398.190247,699.415161 394.339111,697.523926 390.620605,695.400452 
	C388.928497,694.434143 385.981781,693.711121 387.673920,690.775635 
	C389.130157,688.249268 391.131012,689.948853 392.845276,690.801636 
	C395.217743,691.981873 397.556519,693.229736 400.232147,694.599976 
z"/>
<path fill="#000000" opacity="1.000000" stroke="none" 
	d="
M591.594727,326.953308 
	C588.515686,325.891205 585.826965,324.913818 584.223328,322.341858 
	C583.404175,321.028107 582.823303,319.445892 584.334534,318.316376 
	C585.845337,317.187195 586.777100,318.613129 587.556091,319.635040 
	C590.540833,323.550293 594.384583,324.176941 598.627808,322.304504 
	C602.854126,320.439545 606.885803,320.407990 611.155151,322.164154 
	C615.082275,323.779449 618.678406,323.191895 621.269470,319.425110 
	C622.089783,318.232605 623.063965,317.201447 624.476746,318.390778 
	C625.687317,319.409882 625.347961,320.813171 624.624084,322.026550 
	C622.665771,325.308838 619.169495,327.808441 615.990540,326.893646 
	C607.818420,324.542023 599.970276,326.182587 591.594727,326.953308 
z"/>
<path fill="#000000" opacity="1.000000" stroke="none" 
	d="
M323.998169,282.998840 
	C324.774536,284.233093 326.270142,285.000854 326.467102,287.419800 
	C321.764465,289.866394 316.479706,289.740173 310.696167,290.269989 
	C310.830566,284.515930 310.031677,279.310699 312.253693,274.031830 
	C317.076630,275.907013 319.420166,280.384460 323.722931,282.819641 
	C324.002441,283.003662 324.000000,283.000000 323.998169,282.998840 
z"/>
<path fill="#000000" opacity="1.000000" stroke="none" 
	d="
M693.876953,437.854492 
	C695.518433,438.317139 696.761841,438.761597 697.984802,439.256317 
	C701.093140,440.513672 701.977173,442.276398 699.829468,445.329407 
	C696.777039,449.668549 695.063477,454.900330 691.383850,459.335999 
	C688.651489,453.490875 690.063782,441.393951 693.876953,437.854492 
z"/>
<path fill="#000000" opacity="1.000000" stroke="none" 
	d="
M453.030212,263.853699 
	C455.497803,260.169739 456.880524,263.004944 458.391449,264.484955 
	C459.709656,263.757507 460.101349,261.786255 462.766998,262.298004 
	C462.717896,266.349457 461.793610,270.163635 459.890533,273.514435 
	C457.006195,274.020020 457.026855,271.651428 455.850586,270.668732 
	C454.513977,271.369354 454.657990,273.448822 452.254761,273.823761 
	C449.440918,270.660828 448.687195,266.570099 448.008514,262.760223 
	C451.030182,260.476654 450.896606,264.724823 453.030212,263.853699 
z"/>
<path fill="#000000" opacity="1.000000" stroke="none" 
	d="
M568.599121,273.964294 
	C566.145874,273.943420 563.333740,274.809967 562.829468,271.945709 
	C562.300415,268.940857 561.759583,265.369415 563.833618,262.886841 
	C565.517883,260.870789 568.323792,261.684296 571.462646,262.910675 
	C568.051025,264.638336 571.866455,268.442871 568.385681,269.959198 
	C568.836304,271.239227 573.881836,271.813599 568.599121,273.964294 
z"/>
<path fill="#000000" opacity="1.000000" stroke="none" 
	d="
M424.642914,341.230896 
	C423.694641,336.198608 426.618866,332.630585 428.742767,328.830017 
	C429.441864,327.579071 431.058350,327.573456 432.365753,328.091522 
	C434.042725,328.756073 433.778076,330.148895 433.292084,331.452850 
	C432.307556,334.094177 431.251495,336.708801 430.232788,339.337463 
	C429.229767,341.925690 427.312012,342.213135 424.642914,341.230896 
z"/>
<path fill="#000000" opacity="1.000000" stroke="none" 
	d="
M509.518250,317.414276 
	C511.815643,315.648376 513.908020,315.173523 516.042480,316.993988 
	C513.263733,319.884094 517.775452,322.002991 516.860291,324.679047 
	C515.952393,327.333496 513.825623,328.298706 511.365295,327.676697 
	C509.217224,327.133606 507.844849,326.099213 510.161652,323.492645 
	C511.413940,322.083710 507.834839,319.990906 509.518250,317.414276 
z"/>
<path fill="#000000" opacity="1.000000" stroke="none" 
	d="
M473.536499,275.101257 
	C467.875854,248.651978 490.583405,226.382935 511.464905,226.280380 
	C529.961792,226.189514 552.467529,240.011230 552.900574,266.802124 
	C553.167236,283.293945 545.168823,296.501190 529.797546,303.640869 
	C515.154236,310.442383 500.864136,308.644135 487.944916,298.780334 
	C480.266937,292.918182 475.230347,285.229065 473.536499,275.101257 
M548.671814,259.840820 
	C547.713318,256.967041 548.097656,253.385269 544.388245,251.969666 
	C543.545105,251.647888 543.534363,250.830734 543.487793,249.908981 
	C543.181824,243.856796 537.407288,238.046112 531.733948,237.918564 
	C528.744629,231.521912 518.739014,228.511932 513.004700,232.284271 
	C507.031219,228.460876 497.533813,231.332596 494.283203,237.945084 
	C488.557343,237.887299 482.134644,243.984558 482.164001,249.692749 
	C482.170776,251.012909 482.058411,251.574219 480.880890,252.408356 
	C476.402191,255.581100 475.355408,262.332336 478.322144,267.192780 
	C475.043060,272.016449 476.288177,278.863037 481.238190,282.562866 
	C482.019165,283.146637 482.173920,283.586426 482.224457,284.509705 
	C482.548553,290.429382 488.845062,296.491180 494.887756,296.510651 
	C494.890442,299.771790 497.421082,300.659851 499.965790,301.675842 
	C506.288666,304.200256 512.914917,303.659576 519.415527,303.346954 
	C522.986511,303.175232 527.078125,302.175140 529.429749,299.441040 
	C531.058350,297.547455 532.780334,296.963135 534.596741,295.815887 
	C538.585144,293.296814 543.064697,290.308289 543.114624,284.538300 
	C543.124634,283.380249 543.344604,282.665222 544.346924,282.135956 
	C548.429321,279.980255 549.280884,275.436157 548.471558,272.246979 
	C547.413879,268.079529 548.914551,264.486420 548.671814,259.840820 
z"/>
<path fill="#000000" opacity="1.000000" stroke="none" 
	d="
M303.022461,615.984985 
	C305.211090,616.805908 307.395172,617.581177 309.498291,618.535034 
	C311.304871,619.354370 312.588806,620.838013 311.928497,622.870300 
	C310.901367,626.031677 307.949524,626.745911 305.143738,626.965515 
	C302.951996,627.136902 302.664978,625.169617 302.661133,623.427795 
	C302.656433,621.275513 302.734375,619.123108 302.839996,616.525696 
	C302.903412,616.080627 302.982758,616.016785 303.022461,615.984985 
z"/>
<path fill="#000000" opacity="1.000000" stroke="none" 
	d="
M403.943909,223.560760 
	C402.385895,228.301910 399.211060,226.692932 396.533691,225.830582 
	C394.228455,225.088104 392.966553,222.898926 393.967102,220.737854 
	C395.415039,217.610580 399.123535,217.882248 401.711639,217.796753 
	C404.958893,217.689453 404.046875,220.980072 403.943909,223.560760 
z"/>
<path fill="#000000" opacity="1.000000" stroke="none" 
	d="
M504.664551,284.781891 
	C491.794403,279.533936 488.946320,258.769409 502.112854,250.468216 
	C509.364166,245.896454 519.908264,246.714569 526.180481,252.531601 
	C532.529358,258.419739 534.121704,268.610535 529.901184,276.343262 
	C525.645508,284.140320 516.686829,288.029083 507.857544,285.886414 
	C506.893188,285.652374 505.963898,285.273682 504.664551,284.781891 
M515.776123,255.422089 
	C514.620361,255.356461 513.459778,255.187653 512.309692,255.242188 
	C505.605927,255.560104 500.894257,260.972565 501.205353,267.936401 
	C501.496094,274.445526 506.779236,279.116577 513.501587,278.808136 
	C518.536438,278.577087 523.162231,274.623779 524.434387,269.464539 
	C525.773315,264.034729 522.908691,258.996643 515.776123,255.422089 
z"/>
<path fill="#000000" opacity="1.000000" stroke="none" 
	d="
M508.439758,272.844482 
	C507.746521,268.455658 507.237335,264.392731 508.813049,260.220428 
	C512.726562,260.809540 515.194092,263.388153 517.980591,265.345001 
	C518.851746,265.956787 519.390259,267.225830 518.541077,267.931427 
	C515.636047,270.345306 513.359192,274.093292 508.439758,272.844482 
z"/>
</svg>